<?xml version="1.0" standalone="no"?>
<!DOCTYPE svg PUBLIC "-//W3C//DTD SVG 20010904//EN"
 "http://www.w3.org/TR/2001/REC-SVG-20010904/DTD/svg10.dtd">
<svg version="1.0" xmlns="http://www.w3.org/2000/svg"
 width="1280.000000pt" height="1181.000000pt" viewBox="0 0 1280.000000 1181.000000"
 preserveAspectRatio="xMidYMid meet">
<metadata>
Created by potrace 1.15, written by Peter Selinger 2001-2017
</metadata>
<g transform="translate(0.000000,1181.000000) scale(0.100000,-0.100000)"
fill="#000000" stroke="none">
<path d="M6315 11785 c-38 -13 -275 -87 -525 -165 -420 -131 -735 -229 -1525
-475 -165 -51 -475 -148 -690 -215 -214 -67 -525 -164 -690 -215 -329 -103
-825 -257 -1525 -475 -250 -78 -538 -168 -640 -200 -102 -31 -305 -95 -452
-140 l-268 -84 0 -452 0 -452 183 58 c100 31 192 60 205 64 l22 7 0 -4520 0
-4521 130 0 130 0 2 4562 3 4561 265 83 c311 96 1488 463 1940 604 173 54 621
193 995 310 374 117 822 256 995 310 628 196 1226 382 1376 429 l153 48 168
-53 c92 -29 373 -116 623 -194 250 -78 591 -184 758 -236 166 -52 439 -137
607 -189 168 -52 441 -137 608 -189 1007 -314 2301 -717 2790 -869 l197 -62 0
-4557 0 -4558 130 0 130 0 0 4515 c0 2483 3 4515 8 4515 4 0 91 -27 195 -59
l187 -59 0 452 0 452 -67 21 c-38 12 -273 85 -523 163 -250 78 -628 196 -840
262 -699 217 -986 307 -1295 403 -168 52 -441 137 -607 189 -167 52 -512 160
-768 239 -1176 367 -1404 438 -1837 573 -254 79 -466 144 -470 143 -4 0 -39
-11 -78 -24z"/>
<path d="M2357 5981 c-142 -47 -237 -147 -295 -310 -15 -42 -17 -273 -19
-2858 l-3 -2813 460 0 460 0 0 710 0 710 3490 0 3490 0 0 -705 0 -705 450 0
450 0 -2 2188 c-3 2103 -4 2189 -22 2242 -23 69 -61 145 -95 189 -41 54 -136
119 -208 141 -215 66 -429 -36 -529 -254 -52 -114 -53 -140 -54 -1083 l0 -873
-3495 0 -3494 0 -3 1523 c-3 1446 -4 1525 -22 1577 -48 144 -133 246 -252 302
-87 41 -217 49 -307 19z"/>
<path d="M3855 5383 c-464 -40 -803 -472 -754 -958 46 -460 419 -795 859 -772
121 6 208 30 321 88 157 81 274 204 359 374 110 220 126 456 49 691 -86 259
-289 463 -540 543 -53 17 -231 45 -249 39 -3 -1 -23 -3 -45 -5z"/>
<path d="M5071 4764 c-128 -46 -217 -151 -256 -301 -12 -46 -15 -138 -15 -480
l0 -423 -662 0 c-709 0 -727 -1 -834 -51 -72 -34 -149 -111 -186 -187 -31 -63
-33 -72 -33 -177 0 -103 2 -114 32 -177 55 -117 164 -200 297 -228 34 -7 352
-10 961 -8 l910 3 57 27 c71 33 146 102 181 166 57 104 57 109 57 813 0 398
-4 667 -10 700 -25 130 -104 242 -212 300 -56 29 -73 33 -153 36 -64 2 -103
-1 -134 -13z"/>
<path d="M5690 3750 l0 -1010 2025 0 2026 0 -3 713 c-4 704 -4 713 -26 785
-70 228 -209 384 -415 466 -147 58 -70 56 -1913 56 l-1694 0 0 -1010z"/>
</g>
</svg>
