<?xml version="1.0" encoding="UTF-8" standalone="no"?>
<!DOCTYPE svg PUBLIC "-//W3C//DTD SVG 1.1//EN" "http://www.w3.org/Graphics/SVG/1.1/DTD/svg11.dtd">
<svg width="100%" height="100%" viewBox="0 0 229 138" version="1.1" xmlns="http://www.w3.org/2000/svg" xmlns:xlink="http://www.w3.org/1999/xlink" xml:space="preserve" xmlns:serif="http://www.serif.com/" style="fill-rule:evenodd;clip-rule:evenodd;stroke-linejoin:round;stroke-miterlimit:2;">
    <circle cx="138.7" cy="84.5" r="3.8" style="fill:white;"/>
    <circle cx="197.8" cy="84.5" r="3.8" style="fill:white;"/>
    <path d="M164.6,93L170.8,93L170.8,63.8L182.3,63.8L182.3,58.6L153.2,58.6L153.2,63.8L164.6,63.8L164.6,93Z" style="fill:white;fill-rule:nonzero;"/>
    <path d="M121.5,70.5C121.627,64.244 118.81,58.278 113.9,54.4C109.2,50.7 102.7,48.6 95.5,48.6L80.9,48.6L80.9,93.1L95.5,93.1C112,93.1 121.5,84.8 121.5,70.5ZM88.4,55.1L97.6,55.1C107.7,55.1 114.6,61.3 114.6,70.7C114.6,76.1 113,80.1 110,82.8C107,85.5 102.6,86.6 96.7,86.6L88.4,86.6L88.4,55.1Z" style="fill:white;fill-rule:nonzero;"/>
    <path d="M185,93L197.5,64.8L209.9,93L216.7,93L200.7,58.6L194.6,58.6L178.4,93L185,93Z" style="fill:white;fill-rule:nonzero;"/>
    <path d="M126.1,93L138.5,64.8L150.9,93L157.7,93L141.7,58.6L135.6,58.6L119.5,93L126.1,93Z" style="fill:white;fill-rule:nonzero;"/>
    <path d="M199,105.8C197.4,105.4 196.1,105 196.1,104C196.1,103 197.7,102.5 199.1,102.5C200.445,102.454 201.782,102.728 203,103.3L203.2,103.3L203.6,99.3L203.5,99.3C201.981,98.817 200.394,98.58 198.8,98.6C196.4,98.6 190.9,99.2 190.9,104.3C190.9,109.4 193.9,109.1 196.3,109.8C198.7,110.5 199.3,110.7 199.3,112C199.3,113.3 198.4,113.5 196.5,113.5C194.83,113.576 193.17,113.196 191.7,112.4L191.5,112.4L191.1,116.7L191.2,116.7C192.92,117.217 194.704,117.486 196.5,117.5C203.2,117.5 204.5,114.2 204.5,111.5C204.5,108.8 201.5,106.5 199,105.8Z" style="fill:white;fill-rule:nonzero;"/>
    <rect x="182.5" y="106" width="6.4" height="3.7" style="fill:white;"/>
    <rect x="182.5" y="99" width="6.9" height="3.7" style="fill:white;"/>
    <path d="M204.9,98.9L204.9,102.8L209.3,102.8L209.3,117.1L214.4,117.1L214.4,102.8L218.8,102.8L218.8,98.9L204.9,98.9Z" style="fill:white;fill-rule:nonzero;"/>
    <path d="M90.9,110L93.7,110L93.7,113.3C93.196,113.517 92.641,113.586 92.1,113.5C88.6,113.5 86.4,111.4 86.4,108.1C86.4,104.8 88.9,102.5 93.2,102.5C94.702,102.51 96.178,102.888 97.5,103.6L97.7,103.6L98.1,99.4L98,99.4C96.244,98.89 94.428,98.621 92.6,98.6C85.1,98.6 81.1,101.9 81.1,108.1C81.1,114.3 86.7,117.4 91.5,117.4C93.855,117.386 96.202,117.118 98.5,116.6L98.6,116.6L98.6,106.3L90.9,106.3L90.9,110Z" style="fill:white;fill-rule:nonzero;"/>
    <path d="M149.1,98.9L149.2,110.6L143.4,98.9L137.1,98.9L137.1,117.1L141.8,117.1L141.6,105.3L147.6,117.1L153.8,117.1L153.8,98.9L149.1,98.9Z" style="fill:white;fill-rule:nonzero;"/>
    <path d="M113.2,110.7C112.7,109.4 112.4,108.6 111.5,108.1C113.468,107.536 114.774,105.64 114.6,103.6C114.6,100.7 112.3,98.9 108.7,98.9L100,98.9L100,117.1L104.8,117.1L104.8,110L105.9,110C107.6,110 108.2,110.7 109.1,113.7L110.2,117.1L115.5,117.1L113.7,112C113.507,111.577 113.34,111.143 113.2,110.7ZM106.5,106.3L104.4,106.3L104.4,102.6L106.5,102.6C108.8,102.6 109.8,103.2 109.8,104.4C109.8,105.6 108.3,106.3 106.5,106.3Z" style="fill:white;fill-rule:nonzero;"/>
    <path d="M161.7,98.9L155,98.9L155,117.1L161.7,117.1C168.8,117.1 172.4,114 172.4,107.9C172.4,101.8 169,98.9 161.7,98.9ZM163.7,113.1L159.8,113.1L159.8,102.8L163.7,102.8C165.8,103.5 167,105.2 167,107.9C167,110.6 165.8,112.4 163.7,113.1Z" style="fill:white;fill-rule:nonzero;"/>
    <rect x="176.6" y="98.9" width="4.5" height="18.2" style="fill:white;fill-rule:nonzero;"/>
    <path d="M129,98.9L123,98.9L116.1,117.1L121.3,117.1L122.7,113.3L129.1,113.3L130.5,117.1L136,117.1L129.1,99L129,98.9ZM123.9,109.6L126,103.2L127.9,109.6L123.9,109.6Z" style="fill:white;fill-rule:nonzero;"/>
    <rect x="182.5" y="113.4" width="7.1" height="3.7" style="fill:white;"/>
    <g transform="matrix(1,0,0,1,-7.50297,4.20898)">
        <g transform="matrix(0.326704,0,0,0.326704,68.624,113.567)">
            <path d="M-0.369,-335.927C-53.871,-331.968 -104.58,-302.584 -133.649,-252.738C-180.535,-172.34 -153.369,-69.158 -72.973,-22.271L-72.973,-22.271C-36.181,-0.816 5.384,5.132 44.142,-2.432C46.85,-2.96 48.62,-5.588 48.091,-8.297C47.563,-11.005 44.935,-12.775 42.226,-12.246C5.77,-5.132 -33.327,-10.728 -67.935,-30.909C-143.561,-75.014 -169.115,-172.074 -125.011,-247.7C-97.666,-294.59 -49.961,-322.23 0.369,-325.955C3.121,-326.158 5.19,-328.558 4.986,-331.31C4.783,-334.062 2.383,-336.131 -0.369,-335.927Z" style="fill:white;"/>
        </g>
        <g transform="matrix(-0.160707,-0.284445,-0.284445,0.160707,36.2463,45.556)">
            <path d="M-63.803,-178.007C-33.876,-168.705 -8.889,-145.3 1.088,-113.102C17.18,-61.168 -11.876,-6.022 -63.807,10.069C-87.574,17.433 -112.015,15.341 -133.074,5.928C-158.034,-5.226 -178.251,-26.663 -186.978,-54.829C-187.795,-57.465 -186.318,-60.268 -183.682,-61.085C-181.046,-61.902 -178.243,-60.425 -177.426,-57.789C-169.585,-32.482 -151.42,-13.223 -128.994,-3.201L-128.994,-3.201C-110.075,5.255 -88.118,7.132 -66.767,0.517C-20.111,-13.94 5.993,-63.484 -8.464,-110.142C-17.428,-139.072 -39.882,-160.1 -66.771,-168.458C-69.407,-169.277 -70.881,-172.081 -70.062,-174.717C-69.243,-177.352 -66.438,-178.826 -63.803,-178.007Z" style="fill:white;"/>
        </g>
        <g transform="matrix(0.312066,0.0966975,0.0966975,-0.312066,39.6249,85.0367)">
            <path d="M39.255,-8.882C1.482,2.858 -30.059,32.395 -42.651,73.034C-62.96,138.577 -26.292,208.174 39.251,228.483C69.244,237.777 100.087,235.14 126.665,223.262L126.665,223.262C138.506,217.971 149.499,210.848 159.195,202.13C161.248,200.285 164.412,200.453 166.257,202.505C168.102,204.557 167.934,207.721 165.882,209.566C155.409,218.983 143.534,226.677 130.745,232.392C102.026,245.226 68.699,248.077 36.291,238.035C-34.527,216.091 -74.147,140.893 -52.203,70.074C-38.598,26.167 -4.524,-5.747 36.287,-18.432C38.922,-19.251 41.727,-17.776 42.546,-15.141C43.365,-12.506 41.89,-9.701 39.255,-8.882Z" style="fill:white;"/>
        </g>
    </g>
</svg>
